<?xml version="1.0" encoding="UTF-8"?>
<svg id="_喇뒨쏛_2" data-name="喇뒨쏛 2" xmlns="http://www.w3.org/2000/svg" viewBox="0 0 105.8 105.37">
  <defs>
    <style>
      .cls-1 {
        fill: #4c49ff;
      }
    </style>
  </defs>
  <g id="_喇뒨쏛_1-2" data-name="喇뒨쏛 1">
    <path class="cls-1" d="M105.8,49.8v6.2c-.54,5.68-1.66,11.4-3.83,16.73-7.17,17.64-23.68,30.38-42.66,32.65v-41.22l.31-.31h12.5l1.86-14.67h-14.67v-11.05c0-.37.44-1.85.61-2.28,1.15-2.91,4.37-3.24,7.14-3.4,2.41-.14,4.91.1,7.33,0v-13.22c-7.91-.29-16.62-1.91-23.42,3.13-8.47,6.29-6.81,17.52-6.96,26.82h-12.6v14.67h12.6v41.12C21.6,101.35,3.36,82.54.45,60-4.39,22.36,30.26-8.07,67,1.92c21.53,5.85,37.56,25.57,38.8,47.88Z"/>
  </g>
</svg>